<?xml version="1.0" standalone="no"?>
<!DOCTYPE svg PUBLIC "-//W3C//DTD SVG 20010904//EN"
 "http://www.w3.org/TR/2001/REC-SVG-20010904/DTD/svg10.dtd">
<svg version="1.0" xmlns="http://www.w3.org/2000/svg"
 width="300.000000pt" height="210.000000pt" viewBox="0 0 300.000000 210.000000"
 preserveAspectRatio="xMidYMid meet">
<metadata>
Created by potrace 1.10, written by Peter Selinger 2001-2011
</metadata>
<g transform="translate(0.000000,210.000000) scale(0.100000,-0.100000)"
fill="#000000" stroke="none">
<path d="M1215 1846 c-338 -89 -572 -331 -639 -663 -20 -95 -20 -241 0 -343
50 -263 242 -499 491 -604 142 -60 205 -71 388 -70 156 0 177 2 248 26 l78 26
49 -33 c78 -53 154 -78 248 -83 116 -6 164 9 229 73 57 55 67 89 35 118 -16
15 -22 15 -67 1 -61 -20 -108 -10 -178 37 l-47 31 57 62 c116 126 190 271 218
431 78 450 -171 849 -612 981 -76 23 -111 27 -248 30 -143 3 -170 1 -250 -20z
m416 -22 c46 -8 88 -20 94 -25 5 -5 16 -9 25 -9 31 0 196 -87 253 -133 145
-119 227 -245 280 -427 28 -98 31 -322 5 -415 -38 -138 -103 -263 -181 -347
-14 -15 -38 -44 -53 -63 l-27 -36 20 -27 c11 -15 42 -40 69 -55 44 -25 57 -27
129 -25 75 3 80 2 77 -17 -4 -29 -74 -90 -120 -103 -101 -30 -234 -6 -349 63
-68 41 -77 42 -163 14 -77 -24 -246 -37 -345 -26 -174 19 -338 88 -470 198
-47 40 -85 74 -85 78 0 3 -16 24 -35 46 -43 49 -116 197 -141 285 -25 88 -26
327 -2 415 78 283 272 493 534 579 145 47 332 59 485 30z"/>
<path d="M1330 1599 c-30 -5 -96 -29 -146 -54 -74 -36 -103 -57 -161 -118
-109 -115 -158 -233 -162 -395 -5 -180 52 -327 173 -446 114 -113 249 -169
411 -170 172 -1 304 53 425 174 122 122 174 251 172 430 0 91 -5 117 -31 189
-38 103 -66 152 -128 217 -137 146 -336 208 -553 173z m247 -31 c86 -17 209
-84 271 -146 138 -138 199 -362 151 -550 -91 -355 -474 -530 -805 -367 -184
90 -290 256 -301 470 -10 189 37 317 162 442 77 77 151 119 255 147 64 16 197
18 267 4z"/>
<path d="M1135 1369 c-35 -20 -45 -41 -45 -93 0 -102 94 -220 183 -231 48 -6
75 -20 108 -55 l26 -28 -124 -124 c-68 -67 -126 -131 -129 -141 -3 -10 2 -29
11 -43 13 -20 23 -24 47 -22 33 3 67 42 187 210 l48 68 54 -73 c124 -168 160
-207 190 -207 28 0 59 30 59 59 0 8 -59 74 -130 146 l-131 132 41 36 c22 21
50 37 63 38 75 2 121 31 171 107 58 88 60 173 4 215 -23 17 -31 18 -75 8 -59
-15 -132 -70 -164 -126 -18 -30 -23 -56 -24 -105 0 -53 -4 -71 -24 -97 -14
-18 -28 -33 -33 -33 -4 0 -21 19 -38 42 -22 29 -28 47 -23 62 11 34 6 92 -11
125 -45 87 -184 162 -241 130z m115 -46 c38 -24 80 -65 96 -95 8 -15 15 -61
17 -103 2 -71 1 -74 -18 -68 -11 3 -42 12 -69 19 -87 23 -160 121 -154 207 5
65 59 81 128 40z m510 5 c39 -42 18 -127 -49 -198 -37 -38 -56 -50 -96 -58
-28 -6 -57 -13 -65 -16 -22 -9 -20 127 2 169 24 44 80 95 124 110 53 19 60 18
84 -7z m-299 -338 c12 0 16 -5 13 -14 -9 -23 5 -40 125 -160 61 -62 111 -120
111 -129 0 -21 -38 -23 -54 -3 -6 8 -39 51 -74 97 -117 155 -140 168 -188 102
-136 -186 -175 -230 -193 -218 -25 15 -6 43 98 149 123 126 134 142 119 170
-9 16 -8 18 7 13 9 -4 25 -7 36 -7z"/>
</g>
</svg>
